<svg width="67" height="72" viewBox="0 0 67 72" fill="none" xmlns="http://www.w3.org/2000/svg">
<path fill-rule="evenodd" clip-rule="evenodd" d="M38.6999 1.04228H14.7855C7.30774 1.01362 1.17814 6.97066 1.00199 14.4484V53.4513C0.876158 60.8212 6.74691 66.9005 14.1204 67.0299C14.3397 67.0299 14.5626 67.0299 14.7855 67.0227H43.5029C50.9411 66.9472 56.9233 60.8895 56.9126 53.4513V20.0172L38.6999 1.04228Z" stroke="#9F9F9F" stroke-width="1.5" stroke-linecap="round" stroke-linejoin="round"/>
<path fill-rule="evenodd" clip-rule="evenodd" d="M39.6472 34.2364C39.6472 31.3203 24.7008 21.9914 23.0053 23.6688C21.3098 25.3462 21.1468 42.9684 23.0053 44.8039C24.8638 46.6458 39.6472 37.1524 39.6472 34.2364Z" stroke="#9F9F9F" stroke-width="1.5" stroke-linecap="round" stroke-linejoin="round"/>
<path d="M37.7563 1V11.4581C37.7563 16.5631 41.8871 20.701 46.9921 20.7154H56.8929" stroke="#9F9F9F" stroke-width="1.5" stroke-linecap="round" stroke-linejoin="round"/>
<path fill-rule="evenodd" clip-rule="evenodd" d="M58.9257 45.0736H46.7776C42.543 45.0736 39.8887 48.0707 39.8887 52.3136V63.7595C39.8887 68.0023 42.5306 70.9995 46.7776 70.9995H58.9257C63.1726 70.9995 65.8146 68.0023 65.8146 63.7595V52.3136C65.8146 48.0707 63.1726 45.0736 58.9257 45.0736Z" fill="white" stroke="#9F9F9F" stroke-width="1.5" stroke-linecap="round" stroke-linejoin="round"/>
<path d="M52.8506 52.8517V63.2221" stroke="#9F9F9F" stroke-linecap="round" stroke-linejoin="round"/>
<path d="M58.0364 58.0368H47.666" stroke="#9F9F9F" stroke-linecap="round" stroke-linejoin="round"/>
</svg>
